<mxfile host="app.diagrams.net" modified="2023-03-26T16:18:38.058Z" agent="Mozilla/5.0 (Windows NT 10.0; Win64; x64) AppleWebKit/537.36 (KHTML, like Gecko) Chrome/110.0.0.0 Safari/537.36 OPR/96.0.0.0 (Edition Campaign 34)" etag="RsiJEsGPt2WikM4Xk8pa" version="21.1.1" type="github">
  <diagram id="C5RBs43oDa-KdzZeNtuy" name="Page-1">
    <mxGraphModel dx="2020" dy="1100" grid="1" gridSize="10" guides="1" tooltips="1" connect="1" arrows="1" fold="1" page="1" pageScale="1" pageWidth="1654" pageHeight="2336" math="0" shadow="0">
      <root>
        <mxCell id="WIyWlLk6GJQsqaUBKTNV-0" />
        <mxCell id="WIyWlLk6GJQsqaUBKTNV-1" parent="WIyWlLk6GJQsqaUBKTNV-0" />
        <mxCell id="cu5_ZxRj08gAQX0nHQw5-5" value="" style="edgeStyle=orthogonalEdgeStyle;rounded=0;orthogonalLoop=1;jettySize=auto;html=1;labelBackgroundColor=none;strokeColor=#E07A5F;fontColor=default;" parent="WIyWlLk6GJQsqaUBKTNV-1" source="WIyWlLk6GJQsqaUBKTNV-3" target="WIyWlLk6GJQsqaUBKTNV-6" edge="1">
          <mxGeometry relative="1" as="geometry" />
        </mxCell>
        <mxCell id="WIyWlLk6GJQsqaUBKTNV-3" value="Access main page" style="rounded=1;whiteSpace=wrap;html=1;fontSize=12;glass=0;strokeWidth=1;shadow=0;labelBackgroundColor=none;fillColor=#F2CC8F;strokeColor=#E07A5F;fontColor=#393C56;" parent="WIyWlLk6GJQsqaUBKTNV-1" vertex="1">
          <mxGeometry x="160" y="80" width="120" height="40" as="geometry" />
        </mxCell>
        <mxCell id="cu5_ZxRj08gAQX0nHQw5-6" value="" style="edgeStyle=orthogonalEdgeStyle;rounded=0;orthogonalLoop=1;jettySize=auto;html=1;labelBackgroundColor=none;strokeColor=#E07A5F;fontColor=default;" parent="WIyWlLk6GJQsqaUBKTNV-1" source="WIyWlLk6GJQsqaUBKTNV-6" edge="1">
          <mxGeometry relative="1" as="geometry">
            <mxPoint x="220" y="290" as="targetPoint" />
          </mxGeometry>
        </mxCell>
        <mxCell id="cu5_ZxRj08gAQX0nHQw5-7" value="" style="edgeStyle=orthogonalEdgeStyle;rounded=0;orthogonalLoop=1;jettySize=auto;html=1;labelBackgroundColor=none;strokeColor=#E07A5F;fontColor=default;" parent="WIyWlLk6GJQsqaUBKTNV-1" source="WIyWlLk6GJQsqaUBKTNV-6" target="WIyWlLk6GJQsqaUBKTNV-7" edge="1">
          <mxGeometry relative="1" as="geometry">
            <Array as="points">
              <mxPoint x="310" y="205" />
              <mxPoint x="310" y="205" />
            </Array>
          </mxGeometry>
        </mxCell>
        <mxCell id="WIyWlLk6GJQsqaUBKTNV-6" value="Does the&lt;br&gt;&amp;nbsp;user have an account?" style="rhombus;whiteSpace=wrap;html=1;shadow=0;fontFamily=Helvetica;fontSize=12;align=center;strokeWidth=1;spacing=6;spacingTop=-4;labelBackgroundColor=none;fillColor=#F2CC8F;strokeColor=#E07A5F;fontColor=#393C56;" parent="WIyWlLk6GJQsqaUBKTNV-1" vertex="1">
          <mxGeometry x="170" y="160" width="100" height="90" as="geometry" />
        </mxCell>
        <mxCell id="cu5_ZxRj08gAQX0nHQw5-4" value="" style="edgeStyle=orthogonalEdgeStyle;rounded=0;orthogonalLoop=1;jettySize=auto;html=1;labelBackgroundColor=none;strokeColor=#E07A5F;fontColor=default;" parent="WIyWlLk6GJQsqaUBKTNV-1" source="WIyWlLk6GJQsqaUBKTNV-7" target="cu5_ZxRj08gAQX0nHQw5-2" edge="1">
          <mxGeometry relative="1" as="geometry">
            <Array as="points">
              <mxPoint x="430" y="205" />
              <mxPoint x="430" y="205" />
            </Array>
          </mxGeometry>
        </mxCell>
        <mxCell id="WIyWlLk6GJQsqaUBKTNV-7" value="Sign up" style="rounded=1;whiteSpace=wrap;html=1;fontSize=12;glass=0;strokeWidth=1;shadow=0;labelBackgroundColor=none;fillColor=#F2CC8F;strokeColor=#E07A5F;fontColor=#393C56;" parent="WIyWlLk6GJQsqaUBKTNV-1" vertex="1">
          <mxGeometry x="320" y="185" width="80" height="40" as="geometry" />
        </mxCell>
        <mxCell id="cu5_ZxRj08gAQX0nHQw5-1" value="" style="edgeStyle=orthogonalEdgeStyle;rounded=0;orthogonalLoop=1;jettySize=auto;html=1;labelBackgroundColor=none;strokeColor=#E07A5F;fontColor=default;" parent="WIyWlLk6GJQsqaUBKTNV-1" source="cu5_ZxRj08gAQX0nHQw5-0" target="WIyWlLk6GJQsqaUBKTNV-3" edge="1">
          <mxGeometry relative="1" as="geometry" />
        </mxCell>
        <mxCell id="cu5_ZxRj08gAQX0nHQw5-0" value="START" style="ellipse;whiteSpace=wrap;html=1;labelBackgroundColor=none;fillColor=#F2CC8F;strokeColor=#E07A5F;fontColor=#393C56;" parent="WIyWlLk6GJQsqaUBKTNV-1" vertex="1">
          <mxGeometry x="180" y="10" width="80" height="40" as="geometry" />
        </mxCell>
        <mxCell id="cu5_ZxRj08gAQX0nHQw5-12" value="" style="edgeStyle=orthogonalEdgeStyle;rounded=0;orthogonalLoop=1;jettySize=auto;html=1;labelBackgroundColor=none;strokeColor=#E07A5F;fontColor=default;" parent="WIyWlLk6GJQsqaUBKTNV-1" source="cu5_ZxRj08gAQX0nHQw5-2" target="cu5_ZxRj08gAQX0nHQw5-11" edge="1">
          <mxGeometry relative="1" as="geometry" />
        </mxCell>
        <mxCell id="cu5_ZxRj08gAQX0nHQw5-2" value="Access registration form" style="whiteSpace=wrap;html=1;rounded=1;glass=0;strokeWidth=1;shadow=0;labelBackgroundColor=none;fillColor=#F2CC8F;strokeColor=#E07A5F;fontColor=#393C56;" parent="WIyWlLk6GJQsqaUBKTNV-1" vertex="1">
          <mxGeometry x="430" y="175" width="120" height="60" as="geometry" />
        </mxCell>
        <mxCell id="cu5_ZxRj08gAQX0nHQw5-8" value="No" style="text;html=1;align=center;verticalAlign=middle;resizable=0;points=[];autosize=1;strokeColor=none;fillColor=none;labelBackgroundColor=none;fontColor=#393C56;" parent="WIyWlLk6GJQsqaUBKTNV-1" vertex="1">
          <mxGeometry x="270" y="180" width="40" height="30" as="geometry" />
        </mxCell>
        <mxCell id="cu5_ZxRj08gAQX0nHQw5-10" value="Yes" style="text;html=1;align=center;verticalAlign=middle;resizable=0;points=[];autosize=1;strokeColor=none;fillColor=none;labelBackgroundColor=none;fontColor=#393C56;" parent="WIyWlLk6GJQsqaUBKTNV-1" vertex="1">
          <mxGeometry x="220" y="265" width="40" height="30" as="geometry" />
        </mxCell>
        <mxCell id="cu5_ZxRj08gAQX0nHQw5-35" value="" style="edgeStyle=orthogonalEdgeStyle;rounded=0;orthogonalLoop=1;jettySize=auto;html=1;labelBackgroundColor=none;strokeColor=#E07A5F;fontColor=default;" parent="WIyWlLk6GJQsqaUBKTNV-1" source="cu5_ZxRj08gAQX0nHQw5-11" target="cu5_ZxRj08gAQX0nHQw5-34" edge="1">
          <mxGeometry relative="1" as="geometry" />
        </mxCell>
        <mxCell id="cu5_ZxRj08gAQX0nHQw5-11" value="GDPR" style="whiteSpace=wrap;html=1;rounded=1;glass=0;strokeWidth=1;shadow=0;labelBackgroundColor=none;fillColor=#F2CC8F;strokeColor=#E07A5F;fontColor=#393C56;" parent="WIyWlLk6GJQsqaUBKTNV-1" vertex="1">
          <mxGeometry x="580" y="175" width="60" height="60" as="geometry" />
        </mxCell>
        <mxCell id="cu5_ZxRj08gAQX0nHQw5-17" value="" style="edgeStyle=orthogonalEdgeStyle;rounded=0;orthogonalLoop=1;jettySize=auto;html=1;labelBackgroundColor=none;strokeColor=#E07A5F;fontColor=default;" parent="WIyWlLk6GJQsqaUBKTNV-1" source="cu5_ZxRj08gAQX0nHQw5-15" target="cu5_ZxRj08gAQX0nHQw5-16" edge="1">
          <mxGeometry relative="1" as="geometry" />
        </mxCell>
        <mxCell id="cu5_ZxRj08gAQX0nHQw5-15" value="LOGIN" style="rounded=1;whiteSpace=wrap;html=1;labelBackgroundColor=none;fillColor=#F2CC8F;strokeColor=#E07A5F;fontColor=#393C56;" parent="WIyWlLk6GJQsqaUBKTNV-1" vertex="1">
          <mxGeometry x="175" y="295" width="85" height="30" as="geometry" />
        </mxCell>
        <mxCell id="zJe1jJH5rKSQ43pbXj-s-3" style="edgeStyle=orthogonalEdgeStyle;rounded=0;orthogonalLoop=1;jettySize=auto;html=1;exitX=1;exitY=0.5;exitDx=0;exitDy=0;entryX=0;entryY=0.5;entryDx=0;entryDy=0;fillColor=#F2CC8F;strokeColor=#E07A5F;labelBackgroundColor=none;fontColor=default;" parent="WIyWlLk6GJQsqaUBKTNV-1" source="cu5_ZxRj08gAQX0nHQw5-16" target="zJe1jJH5rKSQ43pbXj-s-2" edge="1">
          <mxGeometry relative="1" as="geometry">
            <Array as="points">
              <mxPoint x="310" y="365" />
            </Array>
          </mxGeometry>
        </mxCell>
        <mxCell id="cu5_ZxRj08gAQX0nHQw5-16" value="Enter email" style="whiteSpace=wrap;html=1;rounded=1;labelBackgroundColor=none;fillColor=#F2CC8F;strokeColor=#E07A5F;fontColor=#393C56;" parent="WIyWlLk6GJQsqaUBKTNV-1" vertex="1">
          <mxGeometry x="167.5" y="350" width="100" height="30" as="geometry" />
        </mxCell>
        <mxCell id="zJe1jJH5rKSQ43pbXj-s-14" style="edgeStyle=orthogonalEdgeStyle;rounded=0;orthogonalLoop=1;jettySize=auto;html=1;exitX=0;exitY=0.5;exitDx=0;exitDy=0;entryX=0;entryY=1;entryDx=0;entryDy=0;fillColor=#F2CC8F;strokeColor=#E07A5F;labelBackgroundColor=none;fontColor=default;" parent="WIyWlLk6GJQsqaUBKTNV-1" source="cu5_ZxRj08gAQX0nHQw5-20" target="zJe1jJH5rKSQ43pbXj-s-6" edge="1">
          <mxGeometry relative="1" as="geometry" />
        </mxCell>
        <mxCell id="crmG28LMo6az58xonn9g-2" style="edgeStyle=orthogonalEdgeStyle;rounded=0;orthogonalLoop=1;jettySize=auto;html=1;exitX=0.5;exitY=1;exitDx=0;exitDy=0;strokeColor=#E07A5F;fontColor=#393C56;fillColor=#F2CC8F;entryX=0.5;entryY=0;entryDx=0;entryDy=0;" edge="1" parent="WIyWlLk6GJQsqaUBKTNV-1" source="cu5_ZxRj08gAQX0nHQw5-20" target="cu5_ZxRj08gAQX0nHQw5-45">
          <mxGeometry relative="1" as="geometry">
            <mxPoint x="520" y="580" as="targetPoint" />
          </mxGeometry>
        </mxCell>
        <mxCell id="cu5_ZxRj08gAQX0nHQw5-20" value="Valid?" style="rhombus;whiteSpace=wrap;html=1;labelBackgroundColor=none;fillColor=#F2CC8F;strokeColor=#E07A5F;fontColor=#393C56;" parent="WIyWlLk6GJQsqaUBKTNV-1" vertex="1">
          <mxGeometry x="480" y="425" width="80" height="80" as="geometry" />
        </mxCell>
        <mxCell id="cu5_ZxRj08gAQX0nHQw5-26" value="No" style="text;html=1;align=center;verticalAlign=middle;resizable=0;points=[];autosize=1;strokeColor=none;fillColor=none;labelBackgroundColor=none;fontColor=#393C56;" parent="WIyWlLk6GJQsqaUBKTNV-1" vertex="1">
          <mxGeometry x="425" y="440" width="40" height="30" as="geometry" />
        </mxCell>
        <mxCell id="cu5_ZxRj08gAQX0nHQw5-27" value="Yes" style="text;html=1;align=center;verticalAlign=middle;resizable=0;points=[];autosize=1;strokeColor=none;fillColor=none;labelBackgroundColor=none;fontColor=#393C56;" parent="WIyWlLk6GJQsqaUBKTNV-1" vertex="1">
          <mxGeometry x="540" y="490" width="40" height="30" as="geometry" />
        </mxCell>
        <mxCell id="cu5_ZxRj08gAQX0nHQw5-38" style="edgeStyle=orthogonalEdgeStyle;rounded=0;orthogonalLoop=1;jettySize=auto;html=1;exitX=0.5;exitY=0;exitDx=0;exitDy=0;entryX=1;entryY=0.5;entryDx=0;entryDy=0;labelBackgroundColor=none;strokeColor=#E07A5F;fontColor=default;" parent="WIyWlLk6GJQsqaUBKTNV-1" source="cu5_ZxRj08gAQX0nHQw5-34" target="WIyWlLk6GJQsqaUBKTNV-3" edge="1">
          <mxGeometry relative="1" as="geometry">
            <mxPoint x="390" y="110" as="targetPoint" />
            <Array as="points">
              <mxPoint x="710" y="100" />
            </Array>
          </mxGeometry>
        </mxCell>
        <mxCell id="cu5_ZxRj08gAQX0nHQw5-41" value="" style="edgeStyle=orthogonalEdgeStyle;rounded=0;orthogonalLoop=1;jettySize=auto;html=1;labelBackgroundColor=none;strokeColor=#E07A5F;fontColor=default;" parent="WIyWlLk6GJQsqaUBKTNV-1" source="cu5_ZxRj08gAQX0nHQw5-34" target="cu5_ZxRj08gAQX0nHQw5-40" edge="1">
          <mxGeometry relative="1" as="geometry" />
        </mxCell>
        <mxCell id="cu5_ZxRj08gAQX0nHQw5-34" value="Accept?" style="rhombus;whiteSpace=wrap;html=1;rounded=0;glass=0;strokeWidth=1;shadow=0;labelBackgroundColor=none;fillColor=#F2CC8F;strokeColor=#E07A5F;fontColor=#393C56;" parent="WIyWlLk6GJQsqaUBKTNV-1" vertex="1">
          <mxGeometry x="670" y="165" width="80" height="80" as="geometry" />
        </mxCell>
        <mxCell id="cu5_ZxRj08gAQX0nHQw5-39" value="No" style="text;html=1;align=center;verticalAlign=middle;resizable=0;points=[];autosize=1;strokeColor=none;fillColor=none;labelBackgroundColor=none;fontColor=#393C56;" parent="WIyWlLk6GJQsqaUBKTNV-1" vertex="1">
          <mxGeometry x="700" y="120" width="40" height="30" as="geometry" />
        </mxCell>
        <mxCell id="Mm9zGI56US1DlpfDYQGd-1" style="edgeStyle=orthogonalEdgeStyle;rounded=0;orthogonalLoop=1;jettySize=auto;html=1;exitX=0;exitY=0.5;exitDx=0;exitDy=0;entryX=1;entryY=0.5;entryDx=0;entryDy=0;fillColor=#F2CC8F;strokeColor=#E07A5F;labelBackgroundColor=none;fontColor=default;" parent="WIyWlLk6GJQsqaUBKTNV-1" source="cu5_ZxRj08gAQX0nHQw5-40" target="cu5_ZxRj08gAQX0nHQw5-15" edge="1">
          <mxGeometry relative="1" as="geometry" />
        </mxCell>
        <mxCell id="cu5_ZxRj08gAQX0nHQw5-40" value="Submit" style="rounded=1;whiteSpace=wrap;html=1;glass=0;strokeWidth=1;shadow=0;labelBackgroundColor=none;fillColor=#F2CC8F;strokeColor=#E07A5F;fontColor=#393C56;" parent="WIyWlLk6GJQsqaUBKTNV-1" vertex="1">
          <mxGeometry x="660" y="295" width="100" height="30" as="geometry" />
        </mxCell>
        <mxCell id="Mm9zGI56US1DlpfDYQGd-36" style="edgeStyle=orthogonalEdgeStyle;rounded=0;orthogonalLoop=1;jettySize=auto;html=1;exitX=1;exitY=0.5;exitDx=0;exitDy=0;strokeColor=#E07A5F;fontColor=default;fillColor=#F2CC8F;labelBackgroundColor=none;" parent="WIyWlLk6GJQsqaUBKTNV-1" source="cu5_ZxRj08gAQX0nHQw5-45" target="cu5_ZxRj08gAQX0nHQw5-49" edge="1">
          <mxGeometry relative="1" as="geometry" />
        </mxCell>
        <mxCell id="Mm9zGI56US1DlpfDYQGd-46" style="edgeStyle=orthogonalEdgeStyle;rounded=0;orthogonalLoop=1;jettySize=auto;html=1;exitX=0.5;exitY=1;exitDx=0;exitDy=0;entryX=0.5;entryY=0;entryDx=0;entryDy=0;strokeColor=#E07A5F;fontColor=default;fillColor=#F2CC8F;labelBackgroundColor=none;" parent="WIyWlLk6GJQsqaUBKTNV-1" source="cu5_ZxRj08gAQX0nHQw5-45" target="Mm9zGI56US1DlpfDYQGd-45" edge="1">
          <mxGeometry relative="1" as="geometry" />
        </mxCell>
        <mxCell id="cu5_ZxRj08gAQX0nHQw5-45" value="Access Homepage" style="rounded=1;whiteSpace=wrap;html=1;labelBackgroundColor=none;fillColor=#F2CC8F;strokeColor=#E07A5F;fontColor=#393C56;" parent="WIyWlLk6GJQsqaUBKTNV-1" vertex="1">
          <mxGeometry x="475" y="600" width="90" height="40" as="geometry" />
        </mxCell>
        <mxCell id="Mm9zGI56US1DlpfDYQGd-63" style="edgeStyle=orthogonalEdgeStyle;rounded=0;orthogonalLoop=1;jettySize=auto;html=1;exitX=1;exitY=0.5;exitDx=0;exitDy=0;entryX=0;entryY=0.5;entryDx=0;entryDy=0;strokeColor=#E07A5F;fontColor=default;fillColor=#F2CC8F;labelBackgroundColor=none;" parent="WIyWlLk6GJQsqaUBKTNV-1" source="cu5_ZxRj08gAQX0nHQw5-49" target="Mm9zGI56US1DlpfDYQGd-37" edge="1">
          <mxGeometry relative="1" as="geometry" />
        </mxCell>
        <mxCell id="Mm9zGI56US1DlpfDYQGd-64" style="edgeStyle=orthogonalEdgeStyle;rounded=0;orthogonalLoop=1;jettySize=auto;html=1;exitX=1;exitY=0.5;exitDx=0;exitDy=0;entryX=0;entryY=0.5;entryDx=0;entryDy=0;strokeColor=#E07A5F;fontColor=default;fillColor=#F2CC8F;labelBackgroundColor=none;" parent="WIyWlLk6GJQsqaUBKTNV-1" source="cu5_ZxRj08gAQX0nHQw5-49" target="Mm9zGI56US1DlpfDYQGd-39" edge="1">
          <mxGeometry relative="1" as="geometry" />
        </mxCell>
        <mxCell id="Mm9zGI56US1DlpfDYQGd-66" style="edgeStyle=orthogonalEdgeStyle;rounded=0;orthogonalLoop=1;jettySize=auto;html=1;exitX=1;exitY=0.5;exitDx=0;exitDy=0;entryX=0;entryY=0.5;entryDx=0;entryDy=0;strokeColor=#E07A5F;fontColor=default;fillColor=#F2CC8F;labelBackgroundColor=none;" parent="WIyWlLk6GJQsqaUBKTNV-1" source="cu5_ZxRj08gAQX0nHQw5-49" target="Mm9zGI56US1DlpfDYQGd-65" edge="1">
          <mxGeometry relative="1" as="geometry" />
        </mxCell>
        <mxCell id="zJe1jJH5rKSQ43pbXj-s-12" style="edgeStyle=orthogonalEdgeStyle;rounded=0;orthogonalLoop=1;jettySize=auto;html=1;exitX=1;exitY=0.5;exitDx=0;exitDy=0;entryX=0;entryY=0.5;entryDx=0;entryDy=0;fillColor=#F2CC8F;strokeColor=#E07A5F;labelBackgroundColor=none;fontColor=default;" parent="WIyWlLk6GJQsqaUBKTNV-1" source="cu5_ZxRj08gAQX0nHQw5-49" target="Mm9zGI56US1DlpfDYQGd-38" edge="1">
          <mxGeometry relative="1" as="geometry" />
        </mxCell>
        <mxCell id="cu5_ZxRj08gAQX0nHQw5-49" value="Access Profile" style="rounded=1;whiteSpace=wrap;html=1;labelBackgroundColor=none;fillColor=#F2CC8F;strokeColor=#E07A5F;fontColor=#393C56;" parent="WIyWlLk6GJQsqaUBKTNV-1" vertex="1">
          <mxGeometry x="795" y="600" width="90" height="40" as="geometry" />
        </mxCell>
        <mxCell id="Mm9zGI56US1DlpfDYQGd-29" style="edgeStyle=orthogonalEdgeStyle;rounded=0;orthogonalLoop=1;jettySize=auto;html=1;exitX=0.5;exitY=1;exitDx=0;exitDy=0;strokeColor=#E07A5F;fontColor=default;fillColor=#F2CC8F;entryX=0.5;entryY=0;entryDx=0;entryDy=0;labelBackgroundColor=none;" parent="WIyWlLk6GJQsqaUBKTNV-1" source="Mm9zGI56US1DlpfDYQGd-49" target="cu5_ZxRj08gAQX0nHQw5-56" edge="1">
          <mxGeometry relative="1" as="geometry">
            <mxPoint x="490" y="980" as="sourcePoint" />
            <mxPoint x="1185" y="1020" as="targetPoint" />
            <Array as="points">
              <mxPoint x="520" y="1000" />
              <mxPoint x="1195" y="1000" />
            </Array>
          </mxGeometry>
        </mxCell>
        <mxCell id="Mm9zGI56US1DlpfDYQGd-34" style="edgeStyle=orthogonalEdgeStyle;rounded=0;orthogonalLoop=1;jettySize=auto;html=1;exitX=0.5;exitY=1;exitDx=0;exitDy=0;entryX=0.5;entryY=0;entryDx=0;entryDy=0;strokeColor=#E07A5F;fontColor=default;fillColor=#F2CC8F;labelBackgroundColor=none;" parent="WIyWlLk6GJQsqaUBKTNV-1" source="cu5_ZxRj08gAQX0nHQw5-56" edge="1">
          <mxGeometry relative="1" as="geometry">
            <mxPoint x="1165" y="1150" as="targetPoint" />
          </mxGeometry>
        </mxCell>
        <mxCell id="Mm9zGI56US1DlpfDYQGd-35" style="edgeStyle=orthogonalEdgeStyle;rounded=0;orthogonalLoop=1;jettySize=auto;html=1;exitX=0.5;exitY=1;exitDx=0;exitDy=0;strokeColor=#E07A5F;fontColor=default;fillColor=#F2CC8F;labelBackgroundColor=none;" parent="WIyWlLk6GJQsqaUBKTNV-1" source="cu5_ZxRj08gAQX0nHQw5-56" edge="1">
          <mxGeometry relative="1" as="geometry">
            <mxPoint x="1265.1" y="1150" as="targetPoint" />
          </mxGeometry>
        </mxCell>
        <mxCell id="cu5_ZxRj08gAQX0nHQw5-56" value="Acces Chatbot" style="rounded=1;whiteSpace=wrap;html=1;labelBackgroundColor=none;fillColor=#F2CC8F;strokeColor=#E07A5F;fontColor=#393C56;" parent="WIyWlLk6GJQsqaUBKTNV-1" vertex="1">
          <mxGeometry x="1150" y="1060" width="90" height="40" as="geometry" />
        </mxCell>
        <mxCell id="Mm9zGI56US1DlpfDYQGd-18" style="edgeStyle=orthogonalEdgeStyle;rounded=0;orthogonalLoop=1;jettySize=auto;html=1;exitX=0.5;exitY=1;exitDx=0;exitDy=0;entryX=0.5;entryY=0;entryDx=0;entryDy=0;strokeColor=#E07A5F;fontColor=default;fillColor=#F2CC8F;labelBackgroundColor=none;" parent="WIyWlLk6GJQsqaUBKTNV-1" source="cu5_ZxRj08gAQX0nHQw5-59" edge="1">
          <mxGeometry relative="1" as="geometry">
            <mxPoint x="545" y="1150" as="targetPoint" />
          </mxGeometry>
        </mxCell>
        <mxCell id="Mm9zGI56US1DlpfDYQGd-19" style="edgeStyle=orthogonalEdgeStyle;rounded=0;orthogonalLoop=1;jettySize=auto;html=1;exitX=0.5;exitY=1;exitDx=0;exitDy=0;strokeColor=#E07A5F;fontColor=default;fillColor=#F2CC8F;labelBackgroundColor=none;" parent="WIyWlLk6GJQsqaUBKTNV-1" source="cu5_ZxRj08gAQX0nHQw5-59" edge="1">
          <mxGeometry relative="1" as="geometry">
            <mxPoint x="645" y="1150" as="targetPoint" />
          </mxGeometry>
        </mxCell>
        <mxCell id="Mm9zGI56US1DlpfDYQGd-20" style="edgeStyle=orthogonalEdgeStyle;rounded=0;orthogonalLoop=1;jettySize=auto;html=1;exitX=0.5;exitY=1;exitDx=0;exitDy=0;strokeColor=#E07A5F;fontColor=default;fillColor=#F2CC8F;labelBackgroundColor=none;" parent="WIyWlLk6GJQsqaUBKTNV-1" source="cu5_ZxRj08gAQX0nHQw5-59" edge="1">
          <mxGeometry relative="1" as="geometry">
            <mxPoint x="745.0999999999999" y="1150" as="targetPoint" />
          </mxGeometry>
        </mxCell>
        <mxCell id="cu5_ZxRj08gAQX0nHQw5-59" value="Access &lt;br&gt;Nutrition" style="rounded=1;whiteSpace=wrap;html=1;labelBackgroundColor=none;fillColor=#F2CC8F;strokeColor=#E07A5F;fontColor=#393C56;" parent="WIyWlLk6GJQsqaUBKTNV-1" vertex="1">
          <mxGeometry x="600" y="1060" width="90" height="40" as="geometry" />
        </mxCell>
        <mxCell id="Mm9zGI56US1DlpfDYQGd-12" style="edgeStyle=orthogonalEdgeStyle;rounded=0;orthogonalLoop=1;jettySize=auto;html=1;exitX=0.5;exitY=1;exitDx=0;exitDy=0;entryX=0.5;entryY=0;entryDx=0;entryDy=0;strokeColor=#E07A5F;fontColor=default;fillColor=#F2CC8F;labelBackgroundColor=none;" parent="WIyWlLk6GJQsqaUBKTNV-1" source="cu5_ZxRj08gAQX0nHQw5-64" edge="1">
          <mxGeometry relative="1" as="geometry">
            <Array as="points">
              <mxPoint x="295" y="1130" />
              <mxPoint x="325" y="1130" />
            </Array>
            <mxPoint x="325" y="1150" as="targetPoint" />
          </mxGeometry>
        </mxCell>
        <mxCell id="Mm9zGI56US1DlpfDYQGd-14" style="edgeStyle=orthogonalEdgeStyle;rounded=0;orthogonalLoop=1;jettySize=auto;html=1;exitX=0.5;exitY=1;exitDx=0;exitDy=0;entryX=0.5;entryY=0;entryDx=0;entryDy=0;strokeColor=#E07A5F;fontColor=default;fillColor=#F2CC8F;labelBackgroundColor=none;" parent="WIyWlLk6GJQsqaUBKTNV-1" source="cu5_ZxRj08gAQX0nHQw5-64" edge="1">
          <mxGeometry relative="1" as="geometry">
            <Array as="points">
              <mxPoint x="295" y="1130" />
              <mxPoint x="425" y="1130" />
            </Array>
            <mxPoint x="425" y="1150" as="targetPoint" />
          </mxGeometry>
        </mxCell>
        <mxCell id="Mm9zGI56US1DlpfDYQGd-51" style="edgeStyle=orthogonalEdgeStyle;rounded=0;orthogonalLoop=1;jettySize=auto;html=1;exitX=0.5;exitY=1;exitDx=0;exitDy=0;entryX=0.5;entryY=0;entryDx=0;entryDy=0;strokeColor=#E07A5F;fontColor=default;fillColor=#F2CC8F;labelBackgroundColor=none;" parent="WIyWlLk6GJQsqaUBKTNV-1" source="cu5_ZxRj08gAQX0nHQw5-64" edge="1">
          <mxGeometry relative="1" as="geometry">
            <Array as="points">
              <mxPoint x="295" y="1130" />
              <mxPoint x="220" y="1130" />
            </Array>
            <mxPoint x="220" y="1150" as="targetPoint" />
          </mxGeometry>
        </mxCell>
        <mxCell id="cu5_ZxRj08gAQX0nHQw5-64" value="Access &lt;br&gt;fitness" style="rounded=1;whiteSpace=wrap;html=1;strokeColor=#E07A5F;fontColor=#393C56;fillColor=#F2CC8F;labelBackgroundColor=none;" parent="WIyWlLk6GJQsqaUBKTNV-1" vertex="1">
          <mxGeometry x="250" y="1060" width="90" height="40" as="geometry" />
        </mxCell>
        <mxCell id="cu5_ZxRj08gAQX0nHQw5-65" style="edgeStyle=orthogonalEdgeStyle;rounded=0;orthogonalLoop=1;jettySize=auto;html=1;exitX=0.5;exitY=1;exitDx=0;exitDy=0;strokeColor=#E07A5F;fontColor=default;fillColor=#F2CC8F;labelBackgroundColor=none;" parent="WIyWlLk6GJQsqaUBKTNV-1" source="cu5_ZxRj08gAQX0nHQw5-64" target="cu5_ZxRj08gAQX0nHQw5-64" edge="1">
          <mxGeometry relative="1" as="geometry" />
        </mxCell>
        <mxCell id="Mm9zGI56US1DlpfDYQGd-26" style="edgeStyle=orthogonalEdgeStyle;rounded=0;orthogonalLoop=1;jettySize=auto;html=1;exitX=0.5;exitY=1;exitDx=0;exitDy=0;entryX=0.5;entryY=0;entryDx=0;entryDy=0;strokeColor=#E07A5F;fontColor=default;fillColor=#F2CC8F;labelBackgroundColor=none;" parent="WIyWlLk6GJQsqaUBKTNV-1" source="cu5_ZxRj08gAQX0nHQw5-70" edge="1">
          <mxGeometry relative="1" as="geometry">
            <mxPoint x="865" y="1150" as="targetPoint" />
          </mxGeometry>
        </mxCell>
        <mxCell id="Mm9zGI56US1DlpfDYQGd-27" style="edgeStyle=orthogonalEdgeStyle;rounded=0;orthogonalLoop=1;jettySize=auto;html=1;exitX=0.5;exitY=1;exitDx=0;exitDy=0;entryX=0.5;entryY=0;entryDx=0;entryDy=0;strokeColor=#E07A5F;fontColor=default;fillColor=#F2CC8F;labelBackgroundColor=none;" parent="WIyWlLk6GJQsqaUBKTNV-1" source="cu5_ZxRj08gAQX0nHQw5-70" edge="1">
          <mxGeometry relative="1" as="geometry">
            <mxPoint x="965" y="1150" as="targetPoint" />
          </mxGeometry>
        </mxCell>
        <mxCell id="Mm9zGI56US1DlpfDYQGd-28" style="edgeStyle=orthogonalEdgeStyle;rounded=0;orthogonalLoop=1;jettySize=auto;html=1;exitX=0.5;exitY=1;exitDx=0;exitDy=0;strokeColor=#E07A5F;fontColor=default;fillColor=#F2CC8F;labelBackgroundColor=none;" parent="WIyWlLk6GJQsqaUBKTNV-1" source="cu5_ZxRj08gAQX0nHQw5-70" edge="1">
          <mxGeometry relative="1" as="geometry">
            <mxPoint x="1065.1" y="1150" as="targetPoint" />
          </mxGeometry>
        </mxCell>
        <mxCell id="cu5_ZxRj08gAQX0nHQw5-70" value="Access wellness&amp;nbsp;" style="rounded=1;whiteSpace=wrap;html=1;strokeColor=#E07A5F;fontColor=#393C56;fillColor=#F2CC8F;labelBackgroundColor=none;" parent="WIyWlLk6GJQsqaUBKTNV-1" vertex="1">
          <mxGeometry x="880" y="1060" width="90" height="40" as="geometry" />
        </mxCell>
        <mxCell id="Mm9zGI56US1DlpfDYQGd-7" value="Set goal" style="rounded=1;whiteSpace=wrap;html=1;strokeColor=#E07A5F;fontColor=#393C56;fillColor=#F2CC8F;labelBackgroundColor=none;" parent="WIyWlLk6GJQsqaUBKTNV-1" vertex="1">
          <mxGeometry x="167.5" y="1150" width="90" height="40" as="geometry" />
        </mxCell>
        <mxCell id="Mm9zGI56US1DlpfDYQGd-8" style="edgeStyle=orthogonalEdgeStyle;rounded=0;orthogonalLoop=1;jettySize=auto;html=1;exitX=0.5;exitY=1;exitDx=0;exitDy=0;strokeColor=#E07A5F;fontColor=default;fillColor=#F2CC8F;labelBackgroundColor=none;" parent="WIyWlLk6GJQsqaUBKTNV-1" source="cu5_ZxRj08gAQX0nHQw5-59" target="cu5_ZxRj08gAQX0nHQw5-59" edge="1">
          <mxGeometry relative="1" as="geometry" />
        </mxCell>
        <mxCell id="Mm9zGI56US1DlpfDYQGd-11" value="Track progress" style="rounded=1;whiteSpace=wrap;html=1;strokeColor=#E07A5F;fontColor=#393C56;fillColor=#F2CC8F;labelBackgroundColor=none;" parent="WIyWlLk6GJQsqaUBKTNV-1" vertex="1">
          <mxGeometry x="272.5" y="1150" width="90" height="40" as="geometry" />
        </mxCell>
        <mxCell id="Mm9zGI56US1DlpfDYQGd-13" value="Get recommandation" style="rounded=1;whiteSpace=wrap;html=1;strokeColor=#E07A5F;fontColor=#393C56;fillColor=#F2CC8F;labelBackgroundColor=none;" parent="WIyWlLk6GJQsqaUBKTNV-1" vertex="1">
          <mxGeometry x="372.5" y="1150" width="90" height="40" as="geometry" />
        </mxCell>
        <mxCell id="Mm9zGI56US1DlpfDYQGd-15" value="Set goal" style="rounded=1;whiteSpace=wrap;html=1;strokeColor=#E07A5F;fontColor=#393C56;fillColor=#F2CC8F;labelBackgroundColor=none;" parent="WIyWlLk6GJQsqaUBKTNV-1" vertex="1">
          <mxGeometry x="492.5" y="1150" width="90" height="40" as="geometry" />
        </mxCell>
        <mxCell id="Mm9zGI56US1DlpfDYQGd-16" value="Track progress" style="rounded=1;whiteSpace=wrap;html=1;strokeColor=#E07A5F;fontColor=#393C56;fillColor=#F2CC8F;labelBackgroundColor=none;" parent="WIyWlLk6GJQsqaUBKTNV-1" vertex="1">
          <mxGeometry x="592.5" y="1150" width="90" height="40" as="geometry" />
        </mxCell>
        <mxCell id="Mm9zGI56US1DlpfDYQGd-17" value="Get recommandation" style="rounded=1;whiteSpace=wrap;html=1;strokeColor=#E07A5F;fontColor=#393C56;fillColor=#F2CC8F;labelBackgroundColor=none;" parent="WIyWlLk6GJQsqaUBKTNV-1" vertex="1">
          <mxGeometry x="692.5" y="1150" width="90" height="40" as="geometry" />
        </mxCell>
        <mxCell id="Mm9zGI56US1DlpfDYQGd-21" value="Meditation" style="rounded=1;whiteSpace=wrap;html=1;strokeColor=#E07A5F;fontColor=#393C56;fillColor=#F2CC8F;labelBackgroundColor=none;" parent="WIyWlLk6GJQsqaUBKTNV-1" vertex="1">
          <mxGeometry x="812.5" y="1150" width="90" height="40" as="geometry" />
        </mxCell>
        <mxCell id="Mm9zGI56US1DlpfDYQGd-22" value="Stress reduction" style="rounded=1;whiteSpace=wrap;html=1;strokeColor=#E07A5F;fontColor=#393C56;fillColor=#F2CC8F;labelBackgroundColor=none;" parent="WIyWlLk6GJQsqaUBKTNV-1" vertex="1">
          <mxGeometry x="1012.5" y="1150" width="90" height="40" as="geometry" />
        </mxCell>
        <mxCell id="Mm9zGI56US1DlpfDYQGd-23" value="Mindfulness" style="rounded=1;whiteSpace=wrap;html=1;strokeColor=#E07A5F;fontColor=#393C56;fillColor=#F2CC8F;labelBackgroundColor=none;" parent="WIyWlLk6GJQsqaUBKTNV-1" vertex="1">
          <mxGeometry x="912.5" y="1150" width="90" height="40" as="geometry" />
        </mxCell>
        <mxCell id="Mm9zGI56US1DlpfDYQGd-32" value="Get advice" style="rounded=1;whiteSpace=wrap;html=1;strokeColor=#E07A5F;fontColor=#393C56;fillColor=#F2CC8F;labelBackgroundColor=none;" parent="WIyWlLk6GJQsqaUBKTNV-1" vertex="1">
          <mxGeometry x="1112.5" y="1150" width="90" height="40" as="geometry" />
        </mxCell>
        <mxCell id="Mm9zGI56US1DlpfDYQGd-33" value="Get feedback" style="rounded=1;whiteSpace=wrap;html=1;strokeColor=#E07A5F;fontColor=#393C56;fillColor=#F2CC8F;labelBackgroundColor=none;" parent="WIyWlLk6GJQsqaUBKTNV-1" vertex="1">
          <mxGeometry x="1212.5" y="1150" width="90" height="40" as="geometry" />
        </mxCell>
        <mxCell id="Mm9zGI56US1DlpfDYQGd-37" value="Export data" style="rounded=1;whiteSpace=wrap;html=1;labelBackgroundColor=none;fillColor=#F2CC8F;strokeColor=#E07A5F;fontColor=#393C56;" parent="WIyWlLk6GJQsqaUBKTNV-1" vertex="1">
          <mxGeometry x="965" y="550" width="90" height="40" as="geometry" />
        </mxCell>
        <mxCell id="Mm9zGI56US1DlpfDYQGd-38" value="Settings" style="rounded=1;whiteSpace=wrap;html=1;labelBackgroundColor=none;fillColor=#F2CC8F;strokeColor=#E07A5F;fontColor=#393C56;" parent="WIyWlLk6GJQsqaUBKTNV-1" vertex="1">
          <mxGeometry x="965" y="490" width="90" height="40" as="geometry" />
        </mxCell>
        <mxCell id="Mm9zGI56US1DlpfDYQGd-39" value="Update health information" style="rounded=1;whiteSpace=wrap;html=1;labelBackgroundColor=none;fillColor=#F2CC8F;strokeColor=#E07A5F;fontColor=#393C56;" parent="WIyWlLk6GJQsqaUBKTNV-1" vertex="1">
          <mxGeometry x="965" y="630" width="90" height="40" as="geometry" />
        </mxCell>
        <mxCell id="Mm9zGI56US1DlpfDYQGd-44" value="Yes" style="text;html=1;align=center;verticalAlign=middle;resizable=0;points=[];autosize=1;strokeColor=none;fillColor=none;fontColor=#393C56;labelBackgroundColor=none;" parent="WIyWlLk6GJQsqaUBKTNV-1" vertex="1">
          <mxGeometry x="710" y="245" width="40" height="30" as="geometry" />
        </mxCell>
        <mxCell id="Mm9zGI56US1DlpfDYQGd-48" value="" style="edgeStyle=orthogonalEdgeStyle;rounded=0;orthogonalLoop=1;jettySize=auto;html=1;strokeColor=#E07A5F;fontColor=default;fillColor=#F2CC8F;labelBackgroundColor=none;" parent="WIyWlLk6GJQsqaUBKTNV-1" source="Mm9zGI56US1DlpfDYQGd-45" target="Mm9zGI56US1DlpfDYQGd-47" edge="1">
          <mxGeometry relative="1" as="geometry" />
        </mxCell>
        <mxCell id="Mm9zGI56US1DlpfDYQGd-45" value="Access Features" style="rounded=1;whiteSpace=wrap;html=1;labelBackgroundColor=none;fillColor=#F2CC8F;strokeColor=#E07A5F;fontColor=#393C56;" parent="WIyWlLk6GJQsqaUBKTNV-1" vertex="1">
          <mxGeometry x="475" y="660" width="90" height="40" as="geometry" />
        </mxCell>
        <mxCell id="Mm9zGI56US1DlpfDYQGd-52" style="edgeStyle=orthogonalEdgeStyle;rounded=0;orthogonalLoop=1;jettySize=auto;html=1;exitX=0.5;exitY=1;exitDx=0;exitDy=0;entryX=0.5;entryY=0;entryDx=0;entryDy=0;strokeColor=#E07A5F;fontColor=default;fillColor=#F2CC8F;labelBackgroundColor=none;" parent="WIyWlLk6GJQsqaUBKTNV-1" source="Mm9zGI56US1DlpfDYQGd-47" target="Mm9zGI56US1DlpfDYQGd-49" edge="1">
          <mxGeometry relative="1" as="geometry" />
        </mxCell>
        <mxCell id="Mm9zGI56US1DlpfDYQGd-59" value="" style="edgeStyle=orthogonalEdgeStyle;rounded=0;orthogonalLoop=1;jettySize=auto;html=1;strokeColor=#E07A5F;fontColor=default;fillColor=#F2CC8F;labelBackgroundColor=none;" parent="WIyWlLk6GJQsqaUBKTNV-1" source="Mm9zGI56US1DlpfDYQGd-47" target="Mm9zGI56US1DlpfDYQGd-58" edge="1">
          <mxGeometry relative="1" as="geometry" />
        </mxCell>
        <mxCell id="Mm9zGI56US1DlpfDYQGd-47" value="Did the user complete the health form?" style="rhombus;whiteSpace=wrap;html=1;fillColor=#F2CC8F;strokeColor=#E07A5F;fontColor=#393C56;rounded=0;labelBackgroundColor=none;" parent="WIyWlLk6GJQsqaUBKTNV-1" vertex="1">
          <mxGeometry x="480" y="750" width="80" height="80" as="geometry" />
        </mxCell>
        <mxCell id="Mm9zGI56US1DlpfDYQGd-54" style="edgeStyle=orthogonalEdgeStyle;rounded=0;orthogonalLoop=1;jettySize=auto;html=1;exitX=0.5;exitY=1;exitDx=0;exitDy=0;entryX=0.5;entryY=0;entryDx=0;entryDy=0;strokeColor=#E07A5F;fontColor=default;fillColor=#F2CC8F;labelBackgroundColor=none;" parent="WIyWlLk6GJQsqaUBKTNV-1" source="Mm9zGI56US1DlpfDYQGd-49" target="cu5_ZxRj08gAQX0nHQw5-64" edge="1">
          <mxGeometry relative="1" as="geometry">
            <Array as="points">
              <mxPoint x="520" y="1000" />
              <mxPoint x="295" y="1000" />
            </Array>
          </mxGeometry>
        </mxCell>
        <mxCell id="Mm9zGI56US1DlpfDYQGd-55" style="edgeStyle=orthogonalEdgeStyle;rounded=0;orthogonalLoop=1;jettySize=auto;html=1;exitX=0.5;exitY=1;exitDx=0;exitDy=0;strokeColor=#E07A5F;fontColor=default;fillColor=#F2CC8F;labelBackgroundColor=none;" parent="WIyWlLk6GJQsqaUBKTNV-1" source="Mm9zGI56US1DlpfDYQGd-49" target="cu5_ZxRj08gAQX0nHQw5-59" edge="1">
          <mxGeometry relative="1" as="geometry">
            <Array as="points">
              <mxPoint x="520" y="1000" />
              <mxPoint x="645" y="1000" />
            </Array>
          </mxGeometry>
        </mxCell>
        <mxCell id="Mm9zGI56US1DlpfDYQGd-56" style="edgeStyle=orthogonalEdgeStyle;rounded=0;orthogonalLoop=1;jettySize=auto;html=1;exitX=0.5;exitY=1;exitDx=0;exitDy=0;strokeColor=#E07A5F;fontColor=default;fillColor=#F2CC8F;labelBackgroundColor=none;" parent="WIyWlLk6GJQsqaUBKTNV-1" source="Mm9zGI56US1DlpfDYQGd-49" target="cu5_ZxRj08gAQX0nHQw5-70" edge="1">
          <mxGeometry relative="1" as="geometry">
            <Array as="points">
              <mxPoint x="520" y="1000" />
              <mxPoint x="925" y="1000" />
            </Array>
          </mxGeometry>
        </mxCell>
        <mxCell id="Mm9zGI56US1DlpfDYQGd-49" value="Open features menu" style="whiteSpace=wrap;html=1;fillColor=#F2CC8F;strokeColor=#E07A5F;fontColor=#393C56;rounded=1;labelBackgroundColor=none;" parent="WIyWlLk6GJQsqaUBKTNV-1" vertex="1">
          <mxGeometry x="470" y="870" width="100" height="40" as="geometry" />
        </mxCell>
        <mxCell id="Mm9zGI56US1DlpfDYQGd-57" value="Yes" style="text;html=1;align=center;verticalAlign=middle;resizable=0;points=[];autosize=1;strokeColor=none;fillColor=none;fontColor=#393C56;labelBackgroundColor=none;" parent="WIyWlLk6GJQsqaUBKTNV-1" vertex="1">
          <mxGeometry x="485" y="835" width="40" height="30" as="geometry" />
        </mxCell>
        <mxCell id="Mm9zGI56US1DlpfDYQGd-61" style="edgeStyle=orthogonalEdgeStyle;rounded=0;orthogonalLoop=1;jettySize=auto;html=1;exitX=0.5;exitY=1;exitDx=0;exitDy=0;entryX=1;entryY=0.5;entryDx=0;entryDy=0;strokeColor=#E07A5F;fontColor=default;fillColor=#F2CC8F;labelBackgroundColor=none;" parent="WIyWlLk6GJQsqaUBKTNV-1" source="Mm9zGI56US1DlpfDYQGd-58" target="Mm9zGI56US1DlpfDYQGd-49" edge="1">
          <mxGeometry relative="1" as="geometry" />
        </mxCell>
        <mxCell id="Mm9zGI56US1DlpfDYQGd-58" value="Complete health form" style="rounded=1;whiteSpace=wrap;html=1;fillColor=#F2CC8F;strokeColor=#E07A5F;fontColor=#393C56;labelBackgroundColor=none;" parent="WIyWlLk6GJQsqaUBKTNV-1" vertex="1">
          <mxGeometry x="675" y="770" width="105" height="40" as="geometry" />
        </mxCell>
        <mxCell id="Mm9zGI56US1DlpfDYQGd-60" value="No" style="text;html=1;align=center;verticalAlign=middle;resizable=0;points=[];autosize=1;strokeColor=none;fillColor=none;fontColor=#393C56;labelBackgroundColor=none;" parent="WIyWlLk6GJQsqaUBKTNV-1" vertex="1">
          <mxGeometry x="590" y="760" width="40" height="30" as="geometry" />
        </mxCell>
        <mxCell id="Mm9zGI56US1DlpfDYQGd-65" value="Log out" style="rounded=1;whiteSpace=wrap;html=1;labelBackgroundColor=none;fillColor=#F2CC8F;strokeColor=#E07A5F;fontColor=#393C56;" parent="WIyWlLk6GJQsqaUBKTNV-1" vertex="1">
          <mxGeometry x="965" y="690" width="90" height="40" as="geometry" />
        </mxCell>
        <mxCell id="zJe1jJH5rKSQ43pbXj-s-7" style="edgeStyle=orthogonalEdgeStyle;rounded=0;orthogonalLoop=1;jettySize=auto;html=1;exitX=1;exitY=0.5;exitDx=0;exitDy=0;entryX=0;entryY=0.5;entryDx=0;entryDy=0;fillColor=#F2CC8F;strokeColor=#E07A5F;labelBackgroundColor=none;fontColor=default;" parent="WIyWlLk6GJQsqaUBKTNV-1" source="zJe1jJH5rKSQ43pbXj-s-2" target="zJe1jJH5rKSQ43pbXj-s-6" edge="1">
          <mxGeometry relative="1" as="geometry" />
        </mxCell>
        <mxCell id="zJe1jJH5rKSQ43pbXj-s-15" style="edgeStyle=orthogonalEdgeStyle;rounded=0;orthogonalLoop=1;jettySize=auto;html=1;exitX=0.5;exitY=1;exitDx=0;exitDy=0;entryX=0.5;entryY=1;entryDx=0;entryDy=0;fillColor=#F2CC8F;strokeColor=#E07A5F;labelBackgroundColor=none;fontColor=default;" parent="WIyWlLk6GJQsqaUBKTNV-1" source="zJe1jJH5rKSQ43pbXj-s-2" target="cu5_ZxRj08gAQX0nHQw5-16" edge="1">
          <mxGeometry relative="1" as="geometry" />
        </mxCell>
        <mxCell id="zJe1jJH5rKSQ43pbXj-s-2" value="Is the email valid?" style="rhombus;whiteSpace=wrap;html=1;labelBackgroundColor=none;fillColor=#F2CC8F;strokeColor=#E07A5F;fontColor=#393C56;" parent="WIyWlLk6GJQsqaUBKTNV-1" vertex="1">
          <mxGeometry x="320" y="325" width="80" height="80" as="geometry" />
        </mxCell>
        <mxCell id="zJe1jJH5rKSQ43pbXj-s-13" style="edgeStyle=orthogonalEdgeStyle;rounded=0;orthogonalLoop=1;jettySize=auto;html=1;exitX=0.75;exitY=1;exitDx=0;exitDy=0;entryX=0.5;entryY=0;entryDx=0;entryDy=0;fillColor=#F2CC8F;strokeColor=#E07A5F;labelBackgroundColor=none;fontColor=default;" parent="WIyWlLk6GJQsqaUBKTNV-1" source="zJe1jJH5rKSQ43pbXj-s-6" target="cu5_ZxRj08gAQX0nHQw5-20" edge="1">
          <mxGeometry relative="1" as="geometry">
            <Array as="points">
              <mxPoint x="520" y="385" />
            </Array>
          </mxGeometry>
        </mxCell>
        <mxCell id="zJe1jJH5rKSQ43pbXj-s-6" value="Enter the code" style="rounded=1;whiteSpace=wrap;html=1;labelBackgroundColor=none;fillColor=#F2CC8F;strokeColor=#E07A5F;fontColor=#393C56;" parent="WIyWlLk6GJQsqaUBKTNV-1" vertex="1">
          <mxGeometry x="460" y="345" width="90" height="40" as="geometry" />
        </mxCell>
        <mxCell id="zJe1jJH5rKSQ43pbXj-s-8" value="Yes" style="text;html=1;align=center;verticalAlign=middle;resizable=0;points=[];autosize=1;strokeColor=none;fillColor=none;labelBackgroundColor=none;fontColor=#393C56;" parent="WIyWlLk6GJQsqaUBKTNV-1" vertex="1">
          <mxGeometry x="390" y="345" width="40" height="30" as="geometry" />
        </mxCell>
        <mxCell id="zJe1jJH5rKSQ43pbXj-s-16" value="No" style="text;html=1;align=center;verticalAlign=middle;resizable=0;points=[];autosize=1;strokeColor=none;fillColor=none;labelBackgroundColor=none;fontColor=#393C56;" parent="WIyWlLk6GJQsqaUBKTNV-1" vertex="1">
          <mxGeometry x="320" y="425" width="40" height="30" as="geometry" />
        </mxCell>
        <mxCell id="crmG28LMo6az58xonn9g-1" style="edgeStyle=orthogonalEdgeStyle;rounded=0;orthogonalLoop=1;jettySize=auto;html=1;exitX=0.5;exitY=1;exitDx=0;exitDy=0;strokeColor=#E07A5F;fontColor=#393C56;fillColor=#F2CC8F;" edge="1" parent="WIyWlLk6GJQsqaUBKTNV-1" source="cu5_ZxRj08gAQX0nHQw5-45" target="cu5_ZxRj08gAQX0nHQw5-45">
          <mxGeometry relative="1" as="geometry" />
        </mxCell>
      </root>
    </mxGraphModel>
  </diagram>
</mxfile>
